<svg width="128" height="128" viewBox="0 0 128 128" fill="none" xmlns="http://www.w3.org/2000/svg">
<rect width="128" height="128" rx="17" fill="black"/>
<path d="M77.9077 57.6504H110.968L112.772 62.4592L110.968 69.6724H77.9077V57.6504Z" fill="white"/>
<path d="M31.022 33.0059L31.022 69.673L19 69.673L19 34.2081L31.022 33.0059Z" fill="white"/>
<path d="M65.8857 33.133L65.8857 94.9187L77.9077 94.9187L77.9077 31.2021L65.8857 33.133Z" fill="white"/>
<path d="M59.8748 57.6504L59.8748 97.323L47.8528 96.1208L47.8528 57.6504L59.8748 57.6504Z" fill="white"/>
<path d="M113.012 61.9639L103.755 94.0851L91.1321 94.9183L101.4 58.8523L113.012 61.9639Z" fill="white"/>
<path d="M113.12 62.1318L104.839 33.6519L92.3343 33.2623L101.508 65.2434L113.12 62.1318Z" fill="white"/>
<path d="M19 85.3008H59.8748V97.3228L22.6066 93.7162L19 85.3008Z" fill="white"/>
<path d="M106.159 85.3008H65.8857V97.9239L103.755 94.3173L106.159 85.3008Z" fill="white"/>
<path d="M19 42.0225H59.8748V30.0005L19 34.2082V42.0225Z" fill="white"/>
<path d="M106.76 42.0225H65.8857V30.0005L103.154 33.6071L106.76 42.0225Z" fill="white"/>
</svg>
